<svg xmlns="http://www.w3.org/2000/svg" version="1.1" xmlns:xlink="http://www.w3.org/1999/xlink" xmlns:svgjs="http://svgjs.dev/svgjs" width="1000" height="623" viewBox="0 0 1000 623"><g transform="matrix(1,0,0,1,-0.6060606060606233,99.29601443392596)"><svg viewBox="0 0 396 247" data-background-color="#ffffff" preserveAspectRatio="xMidYMid meet" height="623" width="1000" xmlns="http://www.w3.org/2000/svg" xmlns:xlink="http://www.w3.org/1999/xlink"><g id="tight-bounds" transform="matrix(1,0,0,1,0.2400000000000091,-0.09999999999999432)"><svg viewBox="0 0 395.52 247.2" height="247.2" width="395.52"><g><svg></svg></g><g><svg viewBox="0 0 395.52 247.2" height="247.2" width="395.52"><g transform="matrix(1,0,0,1,75.54432,75.5555860783632)"><svg viewBox="0 0 244.43135999999998 96.08882784327356" height="96.08882784327356" width="244.43135999999998"><g><svg viewBox="0 0 244.43136 96.08882784327358" height="96.08882784327356" width="244.43135999999998"><g><svg viewBox="0 0 244.43136 33.07579099494181" height="33.07579099494181" width="244.43136"><g id="textblocktransform"><svg viewBox="0 0 244.43136 33.07579099494181" height="33.07579099494181" width="244.43136" id="textblock"><g><svg viewBox="0 0 244.43136 17.83950118276803" height="17.83950118276803" width="244.43136"><g transform="matrix(1,0,0,1,0,0)"><svg width="244.43136" viewBox="3.5199999809265137 -31.25 474.30999755859375 34.619998931884766" height="17.83950118276803" data-palette-color="#ba3b0a"><g class="wordmark-text-0" data-fill-palette-color="primary" id="text-0"><path d="M3.88 0L3.88-3.91 10.25-3.91 10.25-26.49 3.52-26.49 3.52-30.4 23.51-30.4Q26.32-30.4 28.58-30.3 30.83-30.2 32.67-29.86L32.67-29.86Q34.81-29.44 36.32-28.71 37.82-27.98 38.77-26.94 39.72-25.9 40.15-24.6 40.58-23.29 40.58-21.75L40.58-21.75Q40.58-18.95 38.82-16.87 37.06-14.79 33.52-13.7L33.52-13.7Q33.08-13.55 32.6-13.44 32.13-13.33 31.64-13.21L31.64-13.21Q32.93-12.52 34.23-11.47 35.52-10.42 36.62-9.18 37.72-7.93 38.54-6.58 39.36-5.22 39.7-3.91L39.7-3.91 44.63-3.91 44.63 0 27.39 0 27.39-3.91 33.2-3.91Q32.79-5.22 31.91-6.62 31.03-8.01 29.79-9.23 28.54-10.45 26.97-11.35 25.39-12.26 23.61-12.57L23.61-12.57 15.75-12.57 15.75-3.91 21.7-3.91 21.7 0 3.88 0ZM35.38-12.77L35.38-12.77Q37.01-13.26 38.31-14.14 39.6-15.01 40.49-16.19 41.38-17.36 41.86-18.77 42.33-20.19 42.33-21.73L42.33-21.73Q42.33-22.8 42.11-23.8 41.89-24.8 41.36-25.72 40.82-26.64 39.92-27.49 39.01-28.34 37.67-29.15L37.67-29.15Q39.18-28.59 40.27-27.8 41.36-27 42.05-26.03 42.75-25.05 43.08-23.96 43.41-22.88 43.41-21.73L43.41-21.73Q43.41-20.31 43.03-18.97 42.65-17.63 41.88-16.42 41.11-15.21 39.92-14.21 38.72-13.21 37.11-12.5L37.11-12.5Q37.84-11.91 38.56-11.05 39.28-10.18 39.92-9.19 40.55-8.2 41.06-7.21 41.58-6.23 41.87-5.4L41.87-5.4 40.72-5.4Q40.36-6.35 39.81-7.41 39.26-8.47 38.56-9.47 37.87-10.47 37.06-11.34 36.25-12.21 35.38-12.77ZM15.75-16.48L24.56-16.48Q27.49-16.48 29.42-16.81 31.35-17.14 32.51-17.79 33.67-18.43 34.14-19.38 34.62-20.34 34.62-21.56L34.62-21.56Q34.62-23.07 33.54-24.28 32.47-25.49 30.13-26.07L30.13-26.07Q29.03-26.34 27.64-26.42 26.25-26.49 24.56-26.49L24.56-26.49 15.75-26.49 15.75-16.48ZM17.5-17.94L17.5-24.78 24.56-24.78Q26.56-24.78 27.91-24.69 29.25-24.61 30.18-24.39 31.1-24.17 31.71-23.82 32.32-23.46 32.84-22.92L32.84-22.92Q32.35-23.14 31.68-23.32 31.01-23.49 30.03-23.61 29.05-23.73 27.72-23.79 26.39-23.85 24.56-23.85L24.56-23.85 18.48-23.85 18.48-17.94 17.5-17.94ZM4.83-23.85L4.83-24.78 8.72-24.78 8.72-23.85 4.83-23.85ZM17.5-5.37L17.5-10.86 20.46-10.86Q22.8-10.86 24.62-10.49 26.44-10.11 27.27-9.18L27.27-9.18Q26.59-9.38 25.92-9.52 25.24-9.67 24.4-9.75 23.56-9.84 22.45-9.89 21.34-9.94 19.78-9.94L19.78-9.94 18.48-9.94 18.48-5.37 17.5-5.37ZM28.44 1.71L46.39 1.71 46.39-2.54 47.36-2.54 47.36 2.64 28.44 2.64 28.44 1.71ZM5.44 1.71L23.51 1.71 23.51-2.54 24.49-2.54 24.49 2.64 5.44 2.64 5.44 1.71ZM52.12 0L52.12-3.91 58.71-3.91 58.71-26.49 52.12-26.49 52.12-30.4 88.43-30.4 88.43-20.87 82.93-20.87 82.93-26.49 64.45-26.49 64.45-16.87 76.71-16.87 76.71-13.82 64.45-13.82 64.45-3.91 82.93-3.91 82.93-9.52 88.43-9.52 88.43 0 52.12 0ZM84.4-18.24L84.4-19.17 90.18-19.17 90.18-29.17 91.16-29.17 91.16-18.24 84.4-18.24ZM66.21-18.33L66.21-24.78 81.91-24.78 81.91-23.85 67.19-23.85 67.19-18.33 66.21-18.33ZM53.59-23.85L53.59-24.78 57.69-24.78 57.69-23.85 53.59-23.85ZM66.21-5.37L66.21-12.11 78.44-12.11 78.44-15.65 79.42-15.65 79.42-11.18 67.19-11.18 67.19-5.37 66.21-5.37ZM53.59 1.71L90.18 1.71 90.18-8.15 91.16-8.15 91.16 2.64 53.59 2.64 53.59 1.71ZM99.9 0L99.9-3.91 106-3.91 106-26.49 99.41-26.49 99.41-30.4 113.69-30.4 135.05-8.25 135.05-26.49 128.46-26.49 128.46-30.4 147.14-30.4 147.14-26.49 140.55-26.49 140.55 0 135.3 0 111.49-25.2 111.49-3.91 118.09-3.91 118.09 0 99.9 0ZM136.76 1.71L142.3 1.71 142.3-24.78 148.9-24.78 148.9-29.17 149.87-29.17 149.87-23.85 143.28-23.85 143.28 2.64 136.76 2.64 136.76 1.71ZM117.11-29.17L118.4-29.17 134.1-13.35 134.1-11.94 117.11-29.17ZM129.93-23.85L129.93-24.78 134.03-24.78 134.03-23.85 129.93-23.85ZM100.87-23.85L100.87-24.78 104.98-23.85 104.98-23.85 100.87-23.85ZM113.25-5.37L113.25-21.88 114.23-20.8 114.23-5.37 113.25-5.37ZM101.36 1.71L119.84 1.71 119.84-2.54 120.82-2.54 120.82 2.64 101.36 2.64 101.36 1.71ZM164.2 0L164.2-3.91 172.5-3.91 172.5-26.49 160.86-26.49 160.86-20.14 155.36-20.14 155.36-30.4 195.13-30.4 195.13-20.14 189.64-20.14 189.64-26.49 178-26.49 178-3.91 186.3-3.91 186.3 0 164.2 0ZM191.11-17.5L191.11-18.43 196.89-18.43 196.89-29.17 197.87-29.17 197.87-17.5 191.11-17.5ZM179.75-5.37L179.75-24.78 188.62-24.78 188.62-23.85 180.73-23.85 180.73-5.37 179.75-5.37ZM156.83-17.5L156.83-18.43 162.61-18.43 162.61-24.78 171.48-24.78 171.48-23.85 163.59-23.85 163.59-17.5 156.83-17.5ZM165.67 1.71L188.05 1.71 188.05-2.54 189.03-2.54 189.03 2.64 165.67 2.64 165.67 1.71ZM202.41-14.67L202.41-14.67Q202.41-18.02 203.71-21.03 205.02-24.05 207.51-26.32 210-28.59 213.65-29.92 217.3-31.25 221.99-31.25L221.99-31.25Q226.87-31.25 230.47-30.04 234.07-28.83 236.43-26.68 238.78-24.54 239.93-21.61 241.08-18.68 241.08-15.23L241.08-15.23Q241.08-11.89 239.8-8.98 238.52-6.08 236.07-3.92 233.63-1.76 230.06-0.51 226.48 0.73 221.91 0.73L221.91 0.73Q217.98 0.73 214.46-0.24 210.93-1.22 208.24-3.16 205.56-5.1 203.98-7.98 202.41-10.86 202.41-14.67ZM207.8-1.66L207.8-1.66Q209.05-0.76 210.62-0.01 212.2 0.73 214.02 1.28 215.83 1.83 217.84 2.14 219.84 2.44 221.91 2.44L221.91 2.44Q226.45 2.44 230.29 1.21 234.12-0.02 236.9-2.33 239.69-4.64 241.26-7.9 242.84-11.16 242.84-15.23L242.84-15.23Q242.84-17.26 242.29-19.25 241.74-21.24 240.74-23.05 239.74-24.85 238.3-26.42 236.86-27.98 235.07-29.15L235.07-29.15Q237.15-28.2 238.77-26.75 240.4-25.29 241.52-23.49 242.64-21.68 243.23-19.58 243.81-17.48 243.81-15.23L243.81-15.23Q243.81-11.01 242.26-7.57 240.71-4.13 237.84-1.7 234.98 0.73 230.93 2.05 226.89 3.37 221.91 3.37L221.91 3.37Q217.3 3.37 213.74 2.14 210.17 0.9 207.8-1.66ZM208.51-14.87L208.51-14.87Q208.51-12.08 209.51-9.91 210.51-7.74 212.28-6.24 214.05-4.74 216.46-3.96 218.86-3.17 221.69-3.17L221.69-3.17Q224.94-3.17 227.42-4.16 229.9-5.15 231.58-6.81 233.27-8.47 234.12-10.66 234.98-12.84 234.98-15.23L234.98-15.23Q234.98-17.99 234.06-20.24 233.14-22.49 231.45-24.06 229.75-25.63 227.32-26.49 224.89-27.34 221.87-27.34L221.87-27.34Q218.94-27.34 216.48-26.45 214.03-25.56 212.26-23.93 210.49-22.29 209.5-19.98 208.51-17.68 208.51-14.87ZM210.27-14.79L210.27-14.79Q210.27-17.04 211.04-19.02 211.81-21 213.3-22.46 214.78-23.93 216.93-24.78 219.08-25.63 221.87-25.63L221.87-25.63Q224.92-25.63 227.26-24.52 229.6-23.41 231.22-21.34L231.22-21.34Q228.92-23.22 226.64-23.96 224.36-24.71 221.87-24.71L221.87-24.71Q219.35-24.71 217.37-23.93 215.4-23.14 214.04-21.79 212.69-20.43 211.97-18.63 211.24-16.82 211.24-14.79L211.24-14.79Q211.24-13.18 211.81-11.71 212.37-10.23 213.42-8.96 214.47-7.69 215.96-6.69 217.45-5.69 219.33-5L219.33-5Q217.15-5.35 215.46-6.24 213.76-7.13 212.61-8.42 211.46-9.72 210.87-11.34 210.27-12.96 210.27-14.79ZM249.67 0L249.67-3.91 256.26-3.91 256.26-26.49 249.67-26.49 249.67-30.4 265.54-30.4 276.99-10.13 287.63-30.4 303.5-30.4 303.5-26.49 296.96-26.49 296.96-3.91 303.5-3.91 303.5 0 285.8 0 285.8-3.91 291.42-3.91 291.42-26.71 278.31-1.73 275.35-1.73 261.8-25.93 261.8-3.91 267.37-3.91 267.37 0 249.67 0ZM298.67-5.37L298.67-24.78 305.26-24.78 305.26-29.17 306.24-29.17 306.24-23.85 299.65-23.85 299.65-5.37 298.67-5.37ZM277.33-13.18L268.3-29.15 269.37-29.15 277.89-14.21 277.33-13.18ZM251.13-23.85L251.13-24.78 255.24-24.78 255.24-23.85 251.13-23.85ZM277.06 0L279.46 0 290.25-20.61 290.25-18.58 280.09 0.93 277.58 0.93 277.06 0ZM263.51-5.37L263.51-20.31 264.49-18.58 264.49-5.37 263.51-5.37ZM287.27 1.71L305.26 1.71 305.26-2.54 306.24-2.54 306.24 2.64 287.27 2.64 287.27 1.71ZM251.13 1.71L269.13 1.71 269.13-2.54 270.1-2.54 270.1 2.64 251.13 2.64 251.13 1.71ZM309.29 0L309.29-3.91 314.56-3.91 330.62-30.4 335.9-30.4 351.67-3.91 358.02-3.91 358.02 0 339.22 0 339.22-3.91 345.13-3.91 341.59-10.13 324.47-10.13 321.03-3.91 326.67-3.91 326.67 0 309.29 0ZM338.66-29.15L339.78-29.15 353.92-5.37 352.79-5.37 338.66-29.15ZM326.18-13.18L339.83-13.18 332.92-25.32 326.18-13.18ZM328.82-14.65L333.36-22.53 333.94-21.46 330.01-14.65 328.82-14.65ZM323.76-5.37L325.42-8.42 341.37-8.42 341.81-7.5 326.16-7.5 325.01-5.37 323.76-5.37ZM340.27 1.71L359.75 1.71 359.75-2.56 360.78-2.56 360.78 2.64 340.27 2.64 340.27 1.71ZM310.36 1.71L328.43 1.71 328.43-2.56 329.4-2.56 329.4 2.64 310.36 2.64 310.36 1.71ZM372.42 0L372.42-3.91 380.72-3.91 380.72-26.49 369.07-26.49 369.07-20.14 363.58-20.14 363.58-30.4 403.35-30.4 403.35-20.14 397.86-20.14 397.86-26.49 386.21-26.49 386.21-3.91 394.51-3.91 394.51 0 372.42 0ZM399.32-17.5L399.32-18.43 405.11-18.43 405.11-29.17 406.09-29.17 406.09-17.5 399.32-17.5ZM387.97-5.37L387.97-24.78 396.83-24.78 396.83-23.85 388.95-23.85 388.95-5.37 387.97-5.37ZM365.05-17.5L365.05-18.43 370.83-18.43 370.83-24.78 379.69-24.78 379.69-23.85 371.81-23.85 371.81-17.5 365.05-17.5ZM373.88 1.71L396.27 1.71 396.27-2.54 397.25-2.54 397.25 2.64 373.88 2.64 373.88 1.71ZM411.36 0L411.36-3.91 418.19-3.91 418.19-26.49 411.6-26.49 411.6-30.4 430.52-30.4 430.52-26.49 423.73-26.49 423.73-3.91 430.28-3.91 430.28 0 411.36 0ZM425.49-5.37L425.49-24.78 432.26-24.78 432.26-29.17 433.23-29.17 433.23-23.85 426.47-23.85 426.47-5.37 425.49-5.37ZM413.07-23.85L413.07-24.78 417.17-24.78 417.17-23.85 413.07-23.85ZM412.82 1.71L432.04 1.71 432.04-2.54 433.01-2.54 433.01 2.64 412.82 2.64 412.82 1.71ZM438.41-15.19L438.41-15.19Q438.41-17.21 438.93-19.19 439.46-21.17 440.52-22.95 441.58-24.73 443.17-26.26 444.75-27.78 446.88-28.89 449-30 451.67-30.63 454.35-31.25 457.55-31.25L457.55-31.25Q459.25-31.25 460.94-30.98 462.62-30.71 464.17-30.24 465.72-29.76 467.1-29.08 468.48-28.39 469.56-27.56L469.56-27.56 469.56-30.4 475.1-30.4 475.1-21.61 469.56-21.61Q468.78-22.85 467.51-23.91 466.24-24.98 464.63-25.73 463.01-26.49 461.11-26.92 459.21-27.34 457.16-27.34L457.16-27.34Q453.93-27.34 451.55-26.32 449.17-25.29 447.61-23.6 446.05-21.9 445.28-19.71 444.51-17.53 444.51-15.19L444.51-15.19Q444.51-12.55 445.49-10.34 446.46-8.13 448.21-6.54 449.95-4.96 452.37-4.06 454.79-3.17 457.69-3.17L457.69-3.17Q460.33-3.17 462.48-3.69 464.63-4.2 466.31-5.16 468-6.13 469.23-7.52 470.46-8.91 471.29-10.64L471.29-10.64 475.05-8.11Q472.78-3.76 468.42-1.51 464.06 0.73 457.47 0.73L457.47 0.73Q453.32 0.73 449.83-0.49 446.34-1.71 443.8-3.86 441.26-6.01 439.83-8.91 438.41-11.82 438.41-15.19ZM471.02-18.97L471.02-19.9 476.86-19.9 476.86-29.15 477.83-29.15 477.83-18.97 471.02-18.97ZM446.27-15.21L446.27-15.21Q446.27-17.48 447.07-19.38 447.88-21.29 449.33-22.68 450.78-24.07 452.8-24.85 454.81-25.63 457.25-25.63L457.25-25.63Q460.45-25.63 462.88-24.65 465.31-23.66 466.77-21.83L466.77-21.83Q464.65-23.32 462.27-24.01 459.89-24.71 457.16-24.71L457.16-24.71Q454.84-24.71 452.99-23.95 451.15-23.19 449.87-21.91 448.59-20.63 447.91-18.93 447.24-17.24 447.24-15.36L447.24-15.36Q447.24-13.53 447.74-11.95 448.24-10.38 449.33-9.06 450.42-7.74 452.15-6.67 453.88-5.59 456.37-4.79L456.37-4.79Q454.08-5.1 452.21-5.98 450.34-6.86 449.03-8.2 447.71-9.55 446.99-11.32 446.27-13.09 446.27-15.21ZM444.36-1.17L444.36-1.17Q445.53-0.37 447.08 0.31 448.63 0.98 450.36 1.45 452.08 1.93 453.92 2.19 455.76 2.44 457.52 2.44L457.52 2.44Q460.65 2.44 463.47 1.9 466.29 1.37 468.64 0.33 471-0.71 472.8-2.23 474.61-3.76 475.71-5.71L475.71-5.71 476.56-5.2Q475.44-3.17 473.59-1.57 471.73 0.02 469.28 1.12 466.82 2.22 463.83 2.8 460.84 3.37 457.47 3.37L457.47 3.37Q455.54 3.37 453.64 3.09 451.74 2.81 450.01 2.23 448.29 1.66 446.84 0.82 445.39-0.02 444.36-1.17Z" fill="#ba3b0a" data-fill-palette-color="primary"></path></g></svg></g></svg></g><g transform="matrix(1,0,0,1,143.4041249921948,22.050979263991174)"><svg viewBox="0 0 101.0272350078052 11.024811730950642" height="11.024811730950642" width="101.0272350078052"><g transform="matrix(1,0,0,1,0,0)"><svg width="101.0272350078052" viewBox="2.440000057220459 -34.060001373291016 343.16998291015625 37.45000076293945" height="11.024811730950642" data-palette-color="#e8772e"><path d="M2.44-15.19L2.44-15.19Q2.44-17.21 2.97-19.19 3.49-21.17 4.55-22.95 5.62-24.73 7.2-26.26 8.79-27.78 10.91-28.89 13.04-30 15.71-30.63 18.38-31.25 21.58-31.25L21.58-31.25Q23.29-31.25 24.98-30.98 26.66-30.71 28.21-30.24 29.76-29.76 31.14-29.08 32.52-28.39 33.59-27.56L33.59-27.56 33.59-30.4 39.14-30.4 39.14-21.61 33.59-21.61Q32.81-22.85 31.54-23.91 30.27-24.98 28.66-25.73 27.05-26.49 25.15-26.92 23.24-27.34 21.19-27.34L21.19-27.34Q17.97-27.34 15.59-26.32 13.21-25.29 11.65-23.6 10.08-21.9 9.31-19.71 8.54-17.53 8.54-15.19L8.54-15.19Q8.54-12.55 9.52-10.34 10.5-8.13 12.24-6.54 13.99-4.96 16.41-4.06 18.82-3.17 21.73-3.17L21.73-3.17Q24.37-3.17 26.51-3.69 28.66-4.2 30.35-5.16 32.03-6.13 33.26-7.52 34.5-8.91 35.33-10.64L35.33-10.64 39.09-8.11Q36.82-3.76 32.46-1.51 28.1 0.73 21.51 0.73L21.51 0.73Q17.36 0.73 13.87-0.49 10.38-1.71 7.84-3.86 5.3-6.01 3.87-8.91 2.44-11.82 2.44-15.19ZM35.06-18.97L35.06-19.9 40.89-19.9 40.89-29.15 41.87-29.15 41.87-18.97 35.06-18.97ZM10.3-15.21L10.3-15.21Q10.3-17.48 11.11-19.38 11.91-21.29 13.37-22.68 14.82-24.07 16.83-24.85 18.85-25.63 21.29-25.63L21.29-25.63Q24.49-25.63 26.92-24.65 29.35-23.66 30.81-21.83L30.81-21.83Q28.69-23.32 26.31-24.01 23.93-24.71 21.19-24.71L21.19-24.71Q18.87-24.71 17.03-23.95 15.19-23.19 13.9-21.91 12.62-20.63 11.95-18.93 11.28-17.24 11.28-15.36L11.28-15.36Q11.28-13.53 11.78-11.95 12.28-10.38 13.37-9.06 14.45-7.74 16.19-6.67 17.92-5.59 20.41-4.79L20.41-4.79Q18.12-5.1 16.25-5.98 14.38-6.86 13.06-8.2 11.74-9.55 11.02-11.32 10.3-13.09 10.3-15.21ZM8.4-1.17L8.4-1.17Q9.57-0.37 11.12 0.31 12.67 0.98 14.39 1.45 16.11 1.93 17.96 2.19 19.8 2.44 21.56 2.44L21.56 2.44Q24.68 2.44 27.5 1.9 30.32 1.37 32.68 0.33 35.03-0.71 36.84-2.23 38.65-3.76 39.75-5.71L39.75-5.71 40.6-5.2Q39.48-3.17 37.62-1.57 35.77 0.02 33.31 1.12 30.86 2.22 27.87 2.8 24.88 3.37 21.51 3.37L21.51 3.37Q19.58 3.37 17.68 3.09 15.77 2.81 14.05 2.23 12.33 1.66 10.88 0.82 9.42-0.02 8.4-1.17ZM46.46-11.69L46.46-11.69Q46.46-13.96 47.41-16.21 48.36-18.46 50.23-20.25 52.1-22.05 54.86-23.17 57.61-24.29 61.2-24.29L61.2-24.29Q62.35-24.29 63.66-24.12 64.96-23.95 66.27-23.56 67.58-23.17 68.82-22.52 70.07-21.88 71.09-20.95L71.09-20.95 71.09-23.56 81.59-23.56 81.59-19.41 76.22-19.41 76.22-3.66 81.59-3.66 81.59 0 71.09 0 71.09-3.17Q70.14-2.22 68.93-1.49 67.72-0.76 66.37-0.27 65.01 0.22 63.56 0.48 62.11 0.73 60.67 0.73L60.67 0.73Q57.15 0.73 54.49-0.27 51.83-1.27 50.05-2.97 48.26-4.66 47.36-6.92 46.46-9.18 46.46-11.69ZM77.98-5.13L77.98-17.7 83.35-17.7 83.35-21.7 84.32-21.7 84.32-16.77 78.95-16.77 78.95-5.13 77.98-5.13ZM51.76-11.89L51.76-11.89Q51.76-9.86 52.48-8.23 53.2-6.59 54.44-5.44 55.69-4.3 57.39-3.66 59.1-3.03 61.08-3.03L61.08-3.03Q62.23-3.03 63.41-3.26 64.6-3.49 65.71-3.97 66.82-4.44 67.81-5.16 68.8-5.88 69.52-6.87 70.24-7.86 70.66-9.13 71.09-10.4 71.09-11.96L71.09-11.96Q71.09-13.7 70.29-15.25 69.48-16.8 68.12-17.97 66.77-19.14 64.96-19.82 63.16-20.51 61.15-20.51L61.15-20.51Q59.15-20.51 57.43-19.9 55.71-19.29 54.45-18.16 53.2-17.04 52.48-15.44 51.76-13.84 51.76-11.89ZM53.44-11.77L53.44-11.77Q53.44-13.31 54.01-14.59 54.59-15.87 55.61-16.81 56.64-17.75 58.05-18.27 59.47-18.8 61.15-18.8L61.15-18.8Q62.42-18.8 63.45-18.52 64.48-18.24 65.23-17.83 65.99-17.43 66.48-17 66.97-16.58 67.16-16.26L67.16-16.26Q65.84-16.99 64.45-17.43 63.06-17.87 61.15-17.87L61.15-17.87Q59.62-17.87 58.38-17.37 57.15-16.87 56.27-16.02 55.39-15.16 54.92-14.04 54.44-12.92 54.44-11.67L54.44-11.67Q54.44-10.5 54.71-9.47 54.98-8.45 55.58-7.58 56.17-6.71 57.14-5.99 58.1-5.27 59.47-4.74L59.47-4.74Q57.93-5 56.8-5.65 55.66-6.3 54.92-7.23 54.17-8.15 53.81-9.31 53.44-10.47 53.44-11.77ZM72.56 1.71L83.35 1.71 83.35-2.29 84.32-2.29 84.32 2.64 72.56 2.64 72.56 1.71ZM49.61-1.05L49.61-1.05Q50.61-0.24 51.88 0.4 53.15 1.05 54.59 1.5 56.03 1.95 57.58 2.2 59.13 2.44 60.69 2.44L60.69 2.44Q63.4 2.44 65.76 1.77 68.11 1.1 69.94-0.1L69.94-0.1 69.94 1.03Q68.11 2.12 65.71 2.75 63.3 3.37 60.72 3.37L60.72 3.37Q58.93 3.37 57.22 3.09 55.52 2.81 54.05 2.25 52.59 1.68 51.44 0.85 50.29 0.02 49.61-1.05ZM90.91 0L90.91-3.66 96.28-3.66 96.28-19.41 90.91-19.41 90.91-23.56 101.53-23.56 101.53-19.48Q102.29-20.46 103.35-21.34 104.41-22.22 105.76-22.88 107.1-23.54 108.69-23.91 110.27-24.29 112.08-24.29L112.08-24.29Q112.62-24.29 113.42-24.26 114.23-24.22 114.96-24.1L114.96-24.1 114.96-19.31Q114.11-19.51 113.28-19.58 112.45-19.65 111.66-19.65L111.66-19.65Q109.71-19.65 107.97-19.03 106.22-18.41 104.85-17.22 103.49-16.04 102.61-14.33 101.73-12.62 101.53-10.42L101.53-10.42 101.53-3.66 110.32-3.66 110.32 0 90.91 0ZM103.24-5.13L103.24-8.23Q103.24-10.52 103.83-12.33 104.41-14.14 105.5-15.38 106.59-16.63 108.15-17.29 109.71-17.94 111.66-17.94L111.66-17.94Q112.08-17.94 112.71-17.88 113.35-17.82 114.05-17.7 114.74-17.58 115.45-17.4 116.16-17.21 116.72-16.97L116.72-16.97 116.72-22.73 117.7-22.73 117.7-15.75Q117.01-16.04 116.22-16.27 115.42-16.5 114.61-16.67 113.79-16.85 113.03-16.93 112.28-17.02 111.66-17.02L111.66-17.02Q109.88-17.02 108.5-16.43 107.12-15.84 106.17-14.75 105.22-13.65 104.72-12.06 104.22-10.47 104.22-8.47L104.22-8.47 104.22-5.13 103.24-5.13ZM92.38-16.77L92.38-17.7 95.26-17.7 95.26-16.77 92.38-16.77ZM92.38 1.71L112.08 1.71 112.08-2.29 113.06-2.29 113.06 2.64 92.38 2.64 92.38 1.71ZM138.81 0L138.81-3.66 144.18-3.66 144.18-19.41 138.81-19.41 138.81-23.56 149.43-23.56 149.43-19.48Q150.19-20.46 151.25-21.34 152.31-22.22 153.65-22.88 154.99-23.54 156.58-23.91 158.17-24.29 159.98-24.29L159.98-24.29Q160.51-24.29 161.32-24.26 162.12-24.22 162.86-24.1L162.86-24.1 162.86-19.31Q162-19.51 161.17-19.58 160.34-19.65 159.56-19.65L159.56-19.65Q157.61-19.65 155.86-19.03 154.12-18.41 152.75-17.22 151.38-16.04 150.5-14.33 149.62-12.62 149.43-10.42L149.43-10.42 149.43-3.66 158.22-3.66 158.22 0 138.81 0ZM151.14-5.13L151.14-8.23Q151.14-10.52 151.72-12.33 152.31-14.14 153.4-15.38 154.48-16.63 156.04-17.29 157.61-17.94 159.56-17.94L159.56-17.94Q159.98-17.94 160.61-17.88 161.24-17.82 161.94-17.7 162.64-17.58 163.34-17.4 164.05-17.21 164.61-16.97L164.61-16.97 164.61-22.73 165.59-22.73 165.59-15.75Q164.91-16.04 164.11-16.27 163.32-16.5 162.5-16.67 161.68-16.85 160.93-16.93 160.17-17.02 159.56-17.02L159.56-17.02Q157.78-17.02 156.4-16.43 155.02-15.84 154.07-14.75 153.12-13.65 152.61-12.06 152.11-10.47 152.11-8.47L152.11-8.47 152.11-5.13 151.14-5.13ZM140.27-16.77L140.27-17.7 143.15-17.7 143.15-16.77 140.27-16.77ZM140.27 1.71L159.98 1.71 159.98-2.29 160.95-2.29 160.95 2.64 140.27 2.64 140.27 1.71ZM170.1-11.33L170.1-11.33Q170.1-13.92 171.06-16.26 172.01-18.6 173.91-20.39 175.82-22.17 178.65-23.23 181.48-24.29 185.22-24.29L185.22-24.29Q188.73-24.29 191.49-23.35 194.25-22.41 196.18-20.63 198.11-18.85 199.12-16.27 200.13-13.7 200.13-10.4L200.13-10.4 175.45-10.4Q175.67-8.64 176.59-7.28 177.5-5.91 178.92-4.97 180.33-4.03 182.13-3.54 183.92-3.05 185.88-3.05L185.88-3.05Q187.46-3.05 189.11-3.31 190.76-3.56 192.22-4 193.69-4.44 194.84-4.99 195.98-5.54 196.59-6.13L196.59-6.13 197.52-6.13 199.82-3.64Q197.3-1.49 193.7-0.38 190.1 0.73 185.75 0.73L185.75 0.73Q181.97 0.73 179.05-0.2 176.13-1.12 174.15-2.76 172.16-4.39 171.13-6.59 170.1-8.79 170.1-11.33ZM177.8-8.69L201.79-8.69Q201.84-9.06 201.87-9.48 201.89-9.91 201.89-10.4L201.89-10.4Q201.89-12.48 201.46-14.37 201.04-16.26 200.22-17.88 199.4-19.51 198.21-20.85 197.01-22.19 195.5-23.14L195.5-23.14Q197.11-22.51 198.46-21.4 199.82-20.29 200.79-18.7 201.77-17.11 202.32-15.04 202.87-12.96 202.87-10.4L202.87-10.4Q202.87-10.21 202.86-9.91 202.84-9.62 202.82-9.25 202.8-8.89 202.76-8.51 202.72-8.13 202.67-7.76L202.67-7.76 179.6-7.76Q180.07-6.98 181.31-6.16 182.56-5.35 184.53-4.79L184.53-4.79Q183.31-4.79 182.25-5.08 181.19-5.37 180.32-5.88 179.46-6.4 178.81-7.12 178.16-7.84 177.8-8.69L177.8-8.69ZM175.6-13.45L194.49-13.45Q194.1-15.14 193.29-16.46 192.47-17.77 191.27-18.66 190.08-19.56 188.54-20.03 187-20.51 185.17-20.51L185.17-20.51Q183.19-20.51 181.57-19.98 179.94-19.46 178.72-18.52 177.5-17.58 176.71-16.28 175.92-14.99 175.6-13.45L175.6-13.45ZM178.94-14.5L177.82-14.5Q178.72-16.5 180.66-17.65 182.6-18.8 185.17-18.8L185.17-18.8Q186.22-18.8 187.21-18.63 188.2-18.46 189.04-18.1 189.88-17.75 190.51-17.24 191.15-16.72 191.52-16.06L191.52-16.06Q190.12-16.99 188.54-17.43 186.95-17.87 185.12-17.87L185.12-17.87Q183-17.87 181.38-16.99 179.77-16.11 178.94-14.5L178.94-14.5ZM173.06-1.07L173.06-1.07Q175.43 0.61 178.56 1.54 181.7 2.47 185.75 2.47L185.75 2.47Q189.71 2.47 193.16 1.56 196.62 0.66 199.4-1.2L199.4-1.2 200.06-0.49Q196.91 1.64 193.43 2.51 189.95 3.39 186.14 3.39L186.14 3.39Q181.19 3.39 177.93 2.2 174.67 1 173.06-1.07ZM209.26 0L209.26-3.66 214.63-3.66 214.63-19.41 209.26-19.41 209.26-23.56 219.88-23.56 219.88-19.87Q220.64-20.8 221.7-21.61 222.76-22.41 224.08-23.01 225.4-23.61 226.94-23.95 228.48-24.29 230.16-24.29L230.16-24.29Q232.7-24.29 234.78-23.57 236.85-22.85 238.32-21.35 239.78-19.85 240.57-17.57 241.37-15.28 241.37-12.16L241.37-12.16 241.37-3.66 246.74-3.66 246.74 0 231.97 0 231.97-3.66 236.12-3.66 236.12-10.08Q236.12-12.06 235.93-13.61 235.75-15.16 235.41-16.04L235.41-16.04Q234.97-17.16 234.3-17.94 233.63-18.73 232.79-19.21 231.94-19.7 230.94-19.92 229.94-20.14 228.82-20.14L228.82-20.14Q227.62-20.14 226.34-19.7 225.06-19.26 223.85-18.47 222.64-17.68 221.6-16.6 220.57-15.53 219.88-14.28L219.88-14.28 219.88-3.66 224.03-3.66 224.03 0 209.26 0ZM243.12-5.13L243.12-11.99Q243.12-14.14 242.8-15.98 242.47-17.82 241.81-19.3 241.15-20.78 240.18-21.85 239.22-22.92 237.95-23.56L237.95-23.56Q239.61-23.14 240.78-22.16 241.95-21.17 242.69-19.65 243.42-18.14 243.76-16.16 244.1-14.18 244.1-11.82L244.1-11.82 244.1-5.13 243.12-5.13ZM221.64-5.13L221.64-13.67Q222.25-14.75 223.09-15.63 223.94-16.5 224.92-17.13 225.91-17.75 227-18.09 228.09-18.43 229.16-18.43L229.16-18.43Q230.84-18.43 231.89-17.8 232.94-17.16 233.43-16.19L233.43-16.19Q232.68-16.75 231.66-17.14 230.65-17.53 229.11-17.53L229.11-17.53Q228.16-17.53 227.18-17.18 226.21-16.82 225.33-16.24 224.45-15.65 223.74-14.89 223.03-14.14 222.62-13.35L222.62-13.35 222.62-5.13 221.64-5.13ZM210.73-16.77L210.73-17.7 213.61-17.7 213.61-16.77 210.73-16.77ZM233.43 1.71L248.5 1.71 248.5-2.29 249.47-2.29 249.47 2.64 233.43 2.64 233.43 1.71ZM210.73 1.71L225.79 1.71 225.79-2.29 226.77-2.29 226.77 2.64 210.73 2.64 210.73 1.71ZM257.7-8.74L257.7-19.41 252.33-19.41 252.33-23.56 257.7-23.56 257.7-28.49 262.95-30.69 262.95-23.56 275.08-23.56 275.08-19.41 262.95-19.41 262.95-7.76Q262.95-5.93 264.09-5.04 265.24-4.15 267.22-4.15L267.22-4.15 274.1-4.15 274.1 0 267.22 0Q265.24 0 263.51-0.43 261.77-0.85 260.48-1.87 259.19-2.88 258.44-4.55 257.7-6.23 257.7-8.74L257.7-8.74ZM264.7-25.02L264.7-29.35 265.68-29.79 265.68-25.02 264.7-25.02ZM264.66-6.76L264.66-17.97 276.84-17.97 276.84-22.46 277.81-22.46 277.81-17.04 265.63-17.04 265.63-5.79Q264.8-6.01 264.66-6.76L264.66-6.76ZM253.79-16.77L253.79-17.7 256.72-17.7 256.72-16.77 253.79-16.77ZM257.55-2.1L257.55-2.1Q258.33-1 259.3-0.27 260.26 0.46 261.46 0.9 262.65 1.34 264.07 1.53 265.49 1.71 267.17 1.71L267.17 1.71 275.86 1.71 275.86-3.05 276.84-3.05 276.84 2.64 267.05 2.64Q265.17 2.64 263.63 2.39 262.09 2.15 260.91 1.6 259.72 1.05 258.88 0.13 258.04-0.78 257.55-2.1ZM283.04-11.69L283.04-11.69Q283.04-13.96 283.99-16.21 284.94-18.46 286.81-20.25 288.68-22.05 291.44-23.17 294.19-24.29 297.78-24.29L297.78-24.29Q298.93-24.29 300.24-24.12 301.54-23.95 302.85-23.56 304.15-23.17 305.4-22.52 306.65-21.88 307.67-20.95L307.67-20.95 307.67-23.56 318.17-23.56 318.17-19.41 312.8-19.41 312.8-3.66 318.17-3.66 318.17 0 307.67 0 307.67-3.17Q306.72-2.22 305.51-1.49 304.3-0.76 302.95-0.27 301.59 0.22 300.14 0.48 298.69 0.73 297.25 0.73L297.25 0.73Q293.73 0.73 291.07-0.27 288.41-1.27 286.63-2.97 284.84-4.66 283.94-6.92 283.04-9.18 283.04-11.69ZM314.56-5.13L314.56-17.7 319.93-17.7 319.93-21.7 320.9-21.7 320.9-16.77 315.53-16.77 315.53-5.13 314.56-5.13ZM288.33-11.89L288.33-11.89Q288.33-9.86 289.05-8.23 289.77-6.59 291.02-5.44 292.27-4.3 293.97-3.66 295.68-3.03 297.66-3.03L297.66-3.03Q298.81-3.03 299.99-3.26 301.18-3.49 302.29-3.97 303.4-4.44 304.39-5.16 305.38-5.88 306.1-6.87 306.82-7.86 307.24-9.13 307.67-10.4 307.67-11.96L307.67-11.96Q307.67-13.7 306.86-15.25 306.06-16.8 304.7-17.97 303.35-19.14 301.54-19.82 299.74-20.51 297.73-20.51L297.73-20.51Q295.73-20.51 294.01-19.9 292.29-19.29 291.03-18.16 289.77-17.04 289.05-15.44 288.33-13.84 288.33-11.89ZM290.02-11.77L290.02-11.77Q290.02-13.31 290.59-14.59 291.17-15.87 292.19-16.81 293.22-17.75 294.63-18.27 296.05-18.8 297.73-18.8L297.73-18.8Q299-18.8 300.03-18.52 301.05-18.24 301.81-17.83 302.57-17.43 303.06-17 303.54-16.58 303.74-16.26L303.74-16.26Q302.42-16.99 301.03-17.43 299.64-17.87 297.73-17.87L297.73-17.87Q296.2-17.87 294.96-17.37 293.73-16.87 292.85-16.02 291.97-15.16 291.5-14.04 291.02-12.92 291.02-11.67L291.02-11.67Q291.02-10.5 291.29-9.47 291.56-8.45 292.16-7.58 292.75-6.71 293.72-5.99 294.68-5.27 296.05-4.74L296.05-4.74Q294.51-5 293.38-5.65 292.24-6.3 291.5-7.23 290.75-8.15 290.39-9.31 290.02-10.47 290.02-11.77ZM309.14 1.71L319.93 1.71 319.93-2.29 320.9-2.29 320.9 2.64 309.14 2.64 309.14 1.71ZM286.19-1.05L286.19-1.05Q287.19-0.24 288.46 0.4 289.73 1.05 291.17 1.5 292.61 1.95 294.16 2.2 295.71 2.44 297.27 2.44L297.27 2.44Q299.98 2.44 302.34 1.77 304.69 1.1 306.52-0.1L306.52-0.1 306.52 1.03Q304.69 2.12 302.29 2.75 299.88 3.37 297.29 3.37L297.29 3.37Q295.51 3.37 293.8 3.09 292.09 2.81 290.63 2.25 289.16 1.68 288.02 0.85 286.87 0.02 286.19-1.05ZM326.88 0L326.88-3.66 332.25-3.66 332.25-30.4 326.88-30.4 326.88-34.06 337.5-34.06 337.5-3.66 342.87-3.66 342.87 0 326.88 0ZM339.21-5.13L339.21-32.81 340.19-32.81 340.19-5.13 339.21-5.13ZM328.35-27.76L328.35-28.69 331.23-28.69 331.23-27.76 328.35-27.76ZM328.35 1.71L344.63 1.71 344.63-2.29 345.61-2.29 345.61 2.64 328.35 2.64 328.35 1.71Z" opacity="1" transform="matrix(1,0,0,1,0,0)" fill="#e8772e" class="slogan-text-1" data-fill-palette-color="secondary" id="text-1"></path></svg></g></svg></g></svg></g></svg></g><g transform="matrix(1,0,0,1,8.921744640000014,37.28726907616496)"><svg viewBox="0 0 226.58787071999998 58.801558767108624" height="58.801558767108624" width="226.58787071999998"><g><svg xmlns="http://www.w3.org/2000/svg" xmlns:xlink="http://www.w3.org/1999/xlink" version="1.1" x="0" y="0" viewBox="0.7379999160766602 41.41455841064453 98.31049346923828 25.51244354248047" enable-background="new 0 0 100 100" xml:space="preserve" height="58.801558767108624" width="226.58787071999998" class="icon-icon-0" data-fill-palette-color="accent" id="icon-0"></svg></g></svg></g><g></g></svg></g></svg></g><g><path d="M87.279 71.344A122.216 122.216 0 0 1 308.241 71.344L306.632 71.344A120.607 120.607 0 0 0 88.888 71.344L87.279 71.344M87.279 175.856A122.216 122.216 0 0 0 308.241 175.856L306.632 175.856A120.607 120.607 0 0 1 88.888 175.856L87.279 175.856" fill="#ba3b0a" stroke="transparent" data-fill-palette-color="tertiary"></path></g></svg></g><defs></defs><mask id="80ff5563-9493-447c-abf3-de3ce2ec22fd"><g id="SvgjsG1068"><svg viewBox="0 0 395.52 247.2" height="247.2" width="395.52"><g><svg></svg></g><g><svg viewBox="0 0 395.52 247.2" height="247.2" width="395.52"><g transform="matrix(1,0,0,1,75.54432,75.5555860783632)"><svg viewBox="0 0 244.43135999999998 96.08882784327356" height="96.08882784327356" width="244.43135999999998"><g><svg viewBox="0 0 244.43136 96.08882784327358" height="96.08882784327356" width="244.43135999999998"><g><svg viewBox="0 0 244.43136 33.07579099494181" height="33.07579099494181" width="244.43136"><g id="SvgjsG1067"><svg viewBox="0 0 244.43136 33.07579099494181" height="33.07579099494181" width="244.43136" id="SvgjsSvg1066"><g><svg viewBox="0 0 244.43136 17.83950118276803" height="17.83950118276803" width="244.43136"><g transform="matrix(1,0,0,1,0,0)"><svg width="244.43136" viewBox="3.5199999809265137 -31.25 474.30999755859375 34.619998931884766" height="17.83950118276803" data-palette-color="#ba3b0a"><g class="wordmark-text-0" data-fill-palette-color="primary" id="SvgjsG1065"></g></svg></g></svg></g><g transform="matrix(1,0,0,1,143.4041249921948,22.050979263991174)"><svg viewBox="0 0 101.0272350078052 11.024811730950642" height="11.024811730950642" width="101.0272350078052"><g transform="matrix(1,0,0,1,0,0)"><svg width="101.0272350078052" viewBox="2.440000057220459 -34.060001373291016 343.16998291015625 37.45000076293945" height="11.024811730950642" data-palette-color="#e8772e"></svg></g></svg></g></svg></g></svg></g><g transform="matrix(1,0,0,1,8.921744640000014,37.28726907616496)"><svg viewBox="0 0 226.58787071999998 58.801558767108624" height="58.801558767108624" width="226.58787071999998"><g><svg xmlns="http://www.w3.org/2000/svg" xmlns:xlink="http://www.w3.org/1999/xlink" version="1.1" x="0" y="0" viewBox="0.7379999160766602 41.41455841064453 98.31049346923828 25.51244354248047" enable-background="new 0 0 100 100" xml:space="preserve" height="58.801558767108624" width="226.58787071999998" class="icon-icon-0" data-fill-palette-color="accent" id="SvgjsSvg1063"><g fill="white"><path d="M71.9 59.185c0-4.275 3.466-7.743 7.742-7.743 4.277 0 7.742 3.468 7.742 7.743s-3.465 7.742-7.742 7.742C75.366 66.927 71.9 63.46 71.9 59.185L71.9 59.185zM74.744 59.185c0 2.706 2.193 4.897 4.898 4.897 2.704 0 4.899-2.191 4.899-4.897 0-2.707-2.195-4.898-4.899-4.898C76.938 54.286 74.744 56.478 74.744 59.185L74.744 59.185zM84.412 59.185c0 2.634-2.135 4.769-4.77 4.769-2.414 0-4.409-1.793-4.726-4.121 0.41 2.174 2.361 3.818 4.707 3.818 2.575 0 4.674-1.981 4.784-4.466H84.412L84.412 59.185zM83.564 57.339c0.264 0.56 0.412 1.186 0.412 1.846 0 2.393-1.941 4.333-4.334 4.333-2.394 0-4.333-1.94-4.333-4.333 0-0.634 0.136-1.233 0.378-1.775 0.606-1.592 2.148-2.724 3.953-2.724C81.417 54.686 82.938 55.782 83.564 57.339L83.564 57.339zM79.643 54.959c-2.334 0-4.224 1.893-4.224 4.226s1.89 4.224 4.224 4.224 4.225-1.891 4.225-4.224S81.977 54.959 79.643 54.959L79.643 54.959zM77.377 59.483l0.95 0.152c0.097 0.298 0.299 0.563 0.588 0.738 0.293 0.176 0.627 0.229 0.939 0.172l0.576 0.763c0.044 0.075 0.123 0.109 0.181 0.076l0.322-0.18c0.06-0.033 0.072-0.117 0.033-0.192l-0.344-0.896c0.057-0.063 0.106-0.132 0.151-0.206 0.308-0.512 0.237-1.143-0.128-1.574l0.373-0.881c0.045-0.073 0.032-0.159-0.024-0.194l-0.315-0.188c-0.058-0.034-0.142-0.004-0.184 0.068l-0.605 0.744c-0.549-0.113-1.134 0.123-1.438 0.631-0.048 0.076-0.086 0.158-0.115 0.24l-0.95 0.117c-0.085-0.001-0.154 0.051-0.154 0.117l-0.007 0.37C77.226 59.427 77.292 59.482 77.377 59.483L77.377 59.483zM82.104 59.274c-0.016 0.468-0.166 0.917-0.42 1.295l0.821 0.557c0.36-0.532 0.569-1.159 0.593-1.815L82.104 59.274 82.104 59.274zM79.038 56.182l0.333 0.71c0.045 0.108 0.07 0.156 0.154 0.156h0.233c0.085 0 0.109-0.048 0.154-0.156l0.331-0.71c0-0.085-0.067-0.153-0.155-0.153h-0.895C79.108 56.028 79.038 56.097 79.038 56.182L79.038 56.182zM76.602 58.829l0.622-0.075c0.041-0.021 0.092-0.034 0.153-0.037l0.155-0.019c0.021-0.014 0.032-0.034 0.042-0.064l0.072-0.221c0.027-0.081-0.012-0.119-0.099-0.195l-0.574-0.535c-0.083-0.026-0.17 0.019-0.196 0.1l-0.275 0.852C76.474 58.716 76.52 58.805 76.602 58.829L76.602 58.829zM78.366 61.967l0.148-0.769c0.027-0.114 0.036-0.167-0.034-0.218l-0.188-0.137c-0.068-0.051-0.115-0.025-0.217 0.035l-0.686 0.38c-0.05 0.07-0.034 0.168 0.034 0.217l0.725 0.526C78.217 62.053 78.313 62.038 78.366 61.967L78.366 61.967zM81.896 61.259l-0.687-0.38c-0.066-0.039-0.108-0.063-0.151-0.062l0.051 0.132c0.104 0.208-0.069 0.426-0.285 0.529l0.097 0.488c0.052 0.071 0.148 0.086 0.217 0.035l0.724-0.526C81.93 61.427 81.944 61.329 81.896 61.259L81.896 61.259zM82.312 57.683l-0.574 0.535c-0.089 0.076-0.126 0.114-0.1 0.195l0.073 0.221c0.024 0.082 0.08 0.091 0.195 0.101l0.778 0.095c0.081-0.024 0.126-0.113 0.1-0.195l-0.277-0.851C82.482 57.701 82.394 57.656 82.312 57.683L82.312 57.683zM80.485 56.873l0.068 0.027c0.083-0.021 0.192 0.006 0.349 0.088 0.223 0.107 0.312 0.205 0.32 0.312 0.135 0.112 0.256 0.237 0.363 0.374l0.783-0.61c-0.394-0.506-0.929-0.9-1.545-1.123L80.485 56.873 80.485 56.873zM77.699 57.673c0.289-0.367 0.674-0.643 1.104-0.8l-0.338-0.934c-0.604 0.221-1.144 0.604-1.548 1.121L77.699 57.673 77.699 57.673zM77.6 60.567c-0.2-0.295-0.329-0.628-0.387-0.973-0.081-0.047-0.144-0.125-0.142-0.236 0-0.027 0-0.053-0.001-0.082l-0.884 0.031c0.023 0.64 0.223 1.272 0.59 1.816L77.6 60.567 77.6 60.567zM80.321 61.558c-0.449 0.129-0.921 0.125-1.359-0.002l-0.276 0.955c0.617 0.178 1.281 0.183 1.91 0.002L80.321 61.558 80.321 61.558zM75.968 59.185c0-0.358 0.052-0.703 0.146-1.031l0.206 0.036c0.108 0.021 0.159 0.029 0.167 0.004l0.022-0.069c0.008-0.025-0.037-0.047-0.138-0.095l-0.188-0.091c0.499-1.383 1.806-2.381 3.346-2.426l0.032 0.204c0.013 0.111 0.021 0.16 0.048 0.16h0.072c0.026 0 0.032-0.049 0.048-0.16l0.03-0.204c1.542 0.047 2.845 1.048 3.342 2.432l-0.187 0.09c-0.103 0.048-0.146 0.071-0.139 0.097l0.023 0.069c0.008 0.026 0.059 0.018 0.167-0.004l0.203-0.035c0.095 0.324 0.146 0.668 0.146 1.023 0 1.181-0.56 2.234-1.427 2.904l-0.144-0.147c-0.076-0.082-0.111-0.116-0.134-0.102l-0.058 0.043c-0.022 0.016 0.001 0.061 0.055 0.159l0.097 0.183c-0.59 0.399-1.299 0.633-2.063 0.633-0.768 0-1.479-0.234-2.069-0.636l0.098-0.184c0.054-0.099 0.076-0.144 0.054-0.158l-0.058-0.043c-0.021-0.017-0.058 0.019-0.135 0.101l-0.144 0.146C76.524 61.414 75.968 60.363 75.968 59.185L75.968 59.185zM79.258 58.477c0.397-0.211 0.891-0.06 1.101 0.337 0.211 0.396 0.061 0.889-0.337 1.1-0.396 0.211-0.889 0.062-1.102-0.336C78.709 59.18 78.862 58.688 79.258 58.477L79.258 58.477zM12.853 59.185c0-4.275 3.467-7.743 7.743-7.743s7.742 3.468 7.742 7.743-3.466 7.742-7.742 7.742S12.853 63.46 12.853 59.185L12.853 59.185zM15.807 59.185c0 2.706 2.192 4.897 4.898 4.897 2.705 0 4.9-2.191 4.9-4.897 0-2.707-2.195-4.898-4.9-4.898C18 54.286 15.807 56.478 15.807 59.185L15.807 59.185zM25.475 59.185c0 2.634-2.135 4.769-4.77 4.769-2.415 0-4.409-1.793-4.725-4.121 0.41 2.174 2.362 3.818 4.708 3.818 2.574 0 4.673-1.981 4.782-4.466H25.475L25.475 59.185zM16.751 57.409c0.606-1.592 2.147-2.724 3.952-2.724 1.778 0 3.298 1.097 3.923 2.653 0.265 0.56 0.414 1.186 0.414 1.846 0 2.393-1.941 4.333-4.334 4.333-2.393 0-4.333-1.94-4.333-4.333C16.372 58.551 16.508 57.951 16.751 57.409L16.751 57.409zM20.705 54.959c-2.333 0-4.223 1.893-4.223 4.226s1.89 4.224 4.223 4.224c2.333 0 4.223-1.891 4.223-4.224S23.039 54.959 20.705 54.959L20.705 54.959zM17.032 59.185c0-0.358 0.051-0.703 0.146-1.031l0.205 0.036c0.11 0.021 0.16 0.029 0.168 0.004l0.022-0.069c0.008-0.025-0.036-0.047-0.137-0.095l-0.186-0.091c0.499-1.383 1.803-2.381 3.346-2.426l0.03 0.204c0.014 0.111 0.022 0.16 0.047 0.16h0.074c0.026 0 0.033-0.049 0.048-0.16l0.03-0.204c1.542 0.047 2.845 1.048 3.341 2.432l-0.187 0.09c-0.101 0.048-0.146 0.071-0.137 0.097l0.022 0.069c0.008 0.026 0.058 0.018 0.167-0.004l0.206-0.035c0.092 0.324 0.144 0.668 0.144 1.023 0 1.181-0.56 2.234-1.426 2.904l-0.144-0.147c-0.076-0.082-0.111-0.116-0.133-0.102l-0.059 0.043c-0.022 0.016 0.001 0.061 0.055 0.159l0.097 0.183c-0.588 0.399-1.299 0.633-2.064 0.633-0.767 0-1.479-0.234-2.068-0.636l0.097-0.184c0.053-0.099 0.076-0.144 0.054-0.158l-0.058-0.043c-0.023-0.017-0.058 0.019-0.134 0.101l-0.143 0.146C17.587 61.414 17.032 60.363 17.032 59.185L17.032 59.185zM21.385 61.558c-0.448 0.129-0.921 0.125-1.361-0.002l-0.275 0.955c0.618 0.178 1.28 0.183 1.911 0.002L21.385 61.558 21.385 61.558zM18.664 60.567c-0.263-0.387-0.405-0.838-0.42-1.295l-0.992 0.035c0.021 0.64 0.221 1.272 0.587 1.816L18.664 60.567 18.664 60.567zM18.764 57.673c0.102-0.13 0.215-0.248 0.337-0.354 0.015-0.106 0.097-0.206 0.278-0.303 0.184-0.106 0.303-0.138 0.396-0.108 0.03-0.012 0.061-0.023 0.092-0.035l-0.338-0.934c-0.604 0.221-1.145 0.604-1.549 1.121L18.764 57.673 18.764 57.673zM21.549 56.873c0.438 0.161 0.819 0.441 1.1 0.802l0.784-0.61c-0.396-0.506-0.93-0.9-1.545-1.123L21.549 56.873 21.549 56.873zM23.375 57.683l-0.573 0.535c-0.089 0.076-0.126 0.114-0.101 0.195l0.073 0.221c0.008 0.028 0.02 0.047 0.036 0.061l0.135 0.017c0.051 0.002 0.095 0.014 0.135 0.037l0.667 0.081c0.081-0.024 0.126-0.113 0.101-0.195l-0.277-0.851C23.544 57.701 23.456 57.656 23.375 57.683L23.375 57.683zM22.958 61.259l-0.686-0.38c-0.101-0.061-0.147-0.086-0.217-0.035l-0.188 0.137c-0.07 0.051-0.062 0.105-0.035 0.218l0.149 0.769c0.051 0.071 0.148 0.086 0.217 0.035l0.725-0.526C22.993 61.427 23.008 61.329 22.958 61.259L22.958 61.259zM19.429 61.967l0.098-0.499c-0.204-0.103-0.441-0.235-0.303-0.51l0.053-0.141c-0.038 0.003-0.079 0.025-0.137 0.062l-0.685 0.38c-0.052 0.07-0.035 0.168 0.033 0.217l0.725 0.526C19.281 62.053 19.378 62.038 19.429 61.967L19.429 61.967zM17.664 58.829l0.778-0.095c0.117-0.01 0.17-0.019 0.197-0.101l0.071-0.221c0.026-0.081-0.013-0.119-0.1-0.195l-0.574-0.535c-0.082-0.026-0.169 0.019-0.196 0.1l-0.276 0.852C17.537 58.716 17.582 58.805 17.664 58.829L17.664 58.829zM20.102 56.182l0.333 0.71c0.046 0.108 0.068 0.156 0.155 0.156h0.232c0.084 0 0.109-0.048 0.154-0.156l0.332-0.71c0-0.085-0.068-0.153-0.155-0.153h-0.895C20.172 56.028 20.102 56.097 20.102 56.182L20.102 56.182zM23.143 59.554c-0.056 0.366-0.192 0.712-0.396 1.016l0.823 0.557c0.359-0.532 0.569-1.159 0.591-1.815l-0.89-0.032C23.255 59.388 23.211 59.487 23.143 59.554L23.143 59.554zM19.899 61.318l0.58-0.768c0.309 0.054 0.637 0 0.927-0.174 0.294-0.176 0.497-0.445 0.592-0.748l0.947-0.151c0.084 0 0.151-0.057 0.15-0.124l-0.006-0.369c-0.002-0.065-0.072-0.119-0.155-0.117l-0.954-0.118c-0.029-0.079-0.065-0.157-0.11-0.23-0.307-0.511-0.897-0.747-1.449-0.627l-0.604-0.742c-0.044-0.073-0.125-0.104-0.182-0.069l-0.316 0.19c-0.059 0.035-0.069 0.12-0.026 0.193l0.374 0.886c-0.359 0.43-0.425 1.058-0.12 1.564 0.046 0.078 0.1 0.148 0.158 0.212l-0.342 0.896c-0.041 0.074-0.027 0.159 0.032 0.193l0.324 0.179C19.778 61.427 19.857 61.392 19.899 61.318L19.899 61.318zM19.892 59.185c0-0.449 0.365-0.814 0.813-0.814 0.45 0 0.813 0.365 0.813 0.814s-0.363 0.812-0.813 0.812C20.257 59.997 19.892 59.634 19.892 59.185L19.892 59.185zM2.055 58.607c-0.581-0.6-0.991-1.21-1.187-1.784l0.085 0.01c0.378 0.038 0.747 0.059 1.081 0.114 0.043 0.217 0.108 0.438 0.195 0.666 0.112 0.295 0.254 0.572 0.417 0.825 0.285 0.023 0.647 0.039 1.111 0.043 0.013 0.035 0.023 0.067 0.031 0.1 0 0 0.04 0.11-0.068 0.11C2.92 58.688 2.406 58.654 2.055 58.607L2.055 58.607zM95.775 49.754c0.533-0.024 1.053-0.034 1.374-0.009 0.952 0.072 1.521 0.074 1.757 0.366-0.071-0.018-0.155-0.01-0.23 0.002-0.385 0.061-0.684 0.16-1.089 0.064L95.775 49.754 95.775 49.754zM55.47 62.807c0.509-0.009 3.531 0.093 4.891 0.187 0.535 0.038 1.172 0.262 1.172 0.262s0.35 0.14 0.691-0.327c0.78-1.074 1.017-1.462 1.426-2.333 0.305-0.647 0.391-0.885 0.019-0.938-0.371-0.051-0.294-0.024-0.294-0.024l-2.1 2.871L55.47 62.807 55.47 62.807zM70.741 59.267l-0.131 4.315h-8.83l-0.767-0.247h-2.715c0 0-27.646 0.247-27.974 0.247-0.329 0-0.442-0.165-0.442-0.165v-3.664C34.765 59.697 66.665 59.316 70.741 59.267L70.741 59.267zM63.7 50.317c-0.071 0.192-0.166 0.429-0.29 0.719-0.527 1.247-1.794 4.207-4.31 8.214l-22.375 0.269c-0.017-0.822-0.131-7.421 0.502-9.089l0.009-0.021c8.527 0.464 26.203-0.085 26.203-0.085L63.7 50.317 63.7 50.317zM69.271 59.129l-9.985 0.119c2.486-3.973 3.742-6.91 4.27-8.15 0.135-0.318 0.237-0.578 0.315-0.792 0.129-0.024 0.627-0.114 2.556-0.409 0.686-0.104 1.138-0.169 1.443-0.209C67.916 52.38 68.52 55.855 69.271 59.129L69.271 59.129zM67.882 48.59l-0.006 0.22c-0.433 0.083-0.838 0.164-1.217 0.241-0.94 0.194-1.803 0.319-2.552 0.397l0.003-0.019c0.006-0.014 0.057-0.102 0.13-0.239C65.262 49.048 66.513 48.851 67.882 48.59L67.882 48.59zM38.802 49.233c-0.366 0.012-0.717 0.112-1.013 0.294-5.023-0.298-11.149-0.681-14.838-0.631-5.483 0.072-9.975 1.743-12.639 2.91-2.667 1.166-3.596 1.79-2.652 1.536 0.805-0.216 1.632-0.476 2.745-0.967 1.164-0.517 3.069-1.459 6.426-2.015 8.11-1.341 11.407-0.561 19.531-0.006 0.229 0.017 0.465 0.031 0.71 0.045-0.34 0.93-0.463 3.224-0.504 5.274-0.036 1.814-0.007 3.458 0.001 3.846l-6.688 0.078c-0.615-4.592-4.04-8.358-9.238-8.386-5.633-0.029-8.474 3.274-8.484 7.672-0.057 1.475-0.171 2.602-0.574 3.575-0.116 0.274-0.253 0.227-0.253 0.227-3.343-0.26-6.555-1.729-8.549-3.402 0.288 0.021 0.606 0.032 0.941 0.029 1.35-0.01 0.523-1.435-0.135-2.243C2.929 56.26 1.776 56.3 1.091 56.203c-0.126-0.02-0.244-0.035-0.353-0.054v-0.051c0-0.507 1.847-1.946 6.349-3.534-0.13 0.064-0.246 0.129-0.34 0.191-0.678 0.454-0.821 0.652-0.821 0.652s-1.613 0.736-2.278 1.06c-0.666 0.326-1.09 0.852-1.062 0.95 0.028 0.1-0.015 0.142 0.934-0.397 0.712-0.403 4.132-2.261 6.584-3.589 3.344-1.735 7.607-2.922 14.955-2.989 6.438-0.057 9.634 0.323 9.634 0.323s0.399 0.257 1.471 0.342C36.952 49.17 37.877 49.208 38.802 49.233L38.802 49.233zM20.571 50.854c4.922 0.025 8.252 3.402 9.116 7.659-0.864-4.262-4.142-8.13-9.062-8.156-5.385-0.028-8.274 3.456-8.519 7.588C12.349 53.842 15.188 50.824 20.571 50.854L20.571 50.854zM62.242 47.685l1.608 0.025-0.933-0.712c-0.188 0.208-0.388 0.414-0.6 0.617L62.242 47.685 62.242 47.685zM79.415 50.719c5.933 0 8.692 2.608 9.091 5.835-0.398-3.227-3.095-6.196-9.027-6.196-5.375 0-8.342 3.123-8.646 5.912C71.135 53.504 74.042 50.719 79.415 50.719L79.415 50.719zM66.299 43.192l0.154-0.53c0 0-6.135-0.499-9.017-0.464l0.389 0.017c3.535 0.176 7.513 0.718 7.513 0.718s0.633 0.082 0.865 0.112l-0.035 0.12c-0.2-0.024-0.66-0.077-1.662-0.184-1.225-0.153-4.027-0.478-6.688-0.609-2.954-0.148-4.679 0-4.679 0s-2.176 1.501-4.082 3.036c-1.685 1.358-4.695 3.931-4.695 3.931s11.061-0.083 11.959-0.083c3.567 0 4.466-0.401 5.891-1.754 1.765-1.678 2.629-3.68 2.856-4.268l0.152 0.02c0.117 0.014 0.246 0.029 0.386 0.043l-0.086 0.279-0.327-0.251c-0.071 0.179-0.168 0.408-0.286 0.663l0.48 0.008-0.126 0.394-0.401-0.306c-0.079 0.168-0.168 0.345-0.267 0.527l-0.035 0.064 0.605 0.01c-0.053 0.155-0.105 0.312-0.158 0.468l-0.502-0.382c-0.113 0.203-0.242 0.418-0.385 0.64l0.791 0.013c-0.069 0.195-0.14 0.387-0.21 0.574l-0.642-0.491c-0.142 0.216-0.295 0.438-0.462 0.661l1.032 0.017c-0.098 0.248-0.192 0.486-0.287 0.706l-0.817-0.625c-0.162 0.211-0.335 0.425-0.521 0.636l1.322 0.021c-0.119 0.271-0.236 0.511-0.35 0.71-0.235 0.417-0.46 0.745-0.719 1.001l-0.189-0.144c0-0.167-0.122-0.291-0.277-0.291-0.03 0-0.058 0.005-0.087 0.013l-0.565-0.431c-0.896 0.822-1.634 1.267-3.003 1.477l0.052-0.001c1.729-0.019 2.836-0.059 3.584-0.16 0.114-0.065 0.228-0.138 0.34-0.22 0.389-0.285 0.685-0.682 1.001-1.244 0.549-0.971 1.2-2.934 1.625-4.321 0.117 0.012 0.241 0.024 0.375 0.038-0.348 1.153-1.043 3.442-1.373 4.387L64.23 47.74c-0.305 0.527-0.614 0.89-0.964 1.212-0.324 0.301-0.686 0.347-1.007 0.463 0.159-0.001 0.531-0.036 1.063-0.103 0.225-0.028 0.47-0.061 0.73-0.095-0.067 0.126-0.118 0.217-0.137 0.252-1.673 0.165-2.725 0.106-2.725 0.106s-15.016 0.418-20.345 0.128c-0.889-0.049-1.854-0.104-2.868-0.165 0.567-0.329 1.191-0.292 1.195-0.291-0.031-0.004-0.062-0.007-0.094-0.01 2.245 0.052 4.388 0.017 4.388 0.017s2.168-1.813 4.48-3.583c2.312-1.77 4.331-3.169 4.331-3.169s0.203-0.149 0.168-0.233c-0.026-0.068-0.459-0.286-1.631-0.38 1.186-0.306 3.84-0.709 8.962-0.303 3.065 0.244 5.147 0.461 6.543 0.632 0.146 0.114 0.28 0.239 0.381 0.378 0.032 0.047 0.043 0.071 0.043 0.071l0.136 0.023c-0.067-0.145-0.229-0.309-0.399-0.451 1.93 0.241 2.456 0.39 2.456 0.39l0.129 0.13c0.726 0.042 2.24 0.138 2.815 0.226 0.188 0.028 0.538 0.116 0.981 0.68 0.693 0.053 1.445 0.119 1.808 0.174 0.177 0.028 0.497 0.107 0.902 0.585 0.727 0.056 1.543 0.126 1.925 0.184 0.173 0.026 0.482 0.103 0.876 0.553 0.703 0.054 1.476 0.121 1.841 0.177 0.181 0.028 0.506 0.107 0.919 0.603l0.027 0.007c0.664 0.053 1.366 0.114 1.711 0.167 0.172 0.026 0.478 0.102 0.867 0.543 0.712 0.054 1.501 0.122 1.875 0.179 0.185 0.029 0.525 0.113 0.959 0.652 4.367 1.229 7.16 1.869 10.994 2.765 0.73 0.171 1.317-0.261 1.426 0.028 0.043 0.107 0.005 0.83-0.2 1.859 0.167 0.005 0.279 0.143 0.254 0.311l-0.245 1.581c-0.027 0.172-0.188 0.311-0.36 0.311h-0.251c-0.369 1.055-0.893 2.187-1.618 3.227-0.608 0.867-1.39 1.654-2.311 2.298h2.773c0.171 0 0.257 0.14 0.189 0.31l-0.229 0.588c-0.067 0.171-0.261 0.31-0.433 0.31h-4.71c-0.724 0.243-1.494 0.4-2.304 0.458-0.793 0.057-0.649-0.142-0.649-0.142l-0.395-4.444c-0.398-3.227-3.158-5.837-9.091-5.837-5.556 0-8.475 2.979-8.605 5.836l-0.064 2.167-1.313 0.016c-0.758-3.286-1.364-6.774-1.405-9.46 0.642-0.083 0.461-0.037 0.84-0.124 0.555-0.129 5.203-0.518 10.436-0.647 5.232-0.128 13.897 1.307 15.258 1.371s-0.114-0.467-3.071-1.216c-2.954-0.749-4.753-0.965-10.801-1.279-4.873-0.253-9.45 0.405-12.654 1.009l0.005-0.222c0.957-0.185 1.967-0.401 2.995-0.651 1.553-0.379-1.646-0.254-2.755-0.221l-0.213 0.005c0.08-2.282 0.215-4.788 0.215-4.788l-0.169-0.02c0 0-0.125 2.522-0.202 4.812-0.756 0.016-1.996 0.028-3.006 0.038C65.258 46.695 65.979 44.268 66.299 43.192L66.299 43.192zM62.621 48.476c0-0.096 0.075-0.172 0.17-0.172 0.097 0 0.171 0.077 0.171 0.172 0 0.094-0.074 0.17-0.171 0.17C62.696 48.646 62.621 48.57 62.621 48.476L62.621 48.476zM61.29 48.596h1.25c0.041 0.083 0.12 0.142 0.216 0.154H61.29C61.186 48.75 61.186 48.596 61.29 48.596L61.29 48.596zM62.082 47.105l-0.129 0.125c-1.329 1.263-2.12 1.653-5.632 1.653-0.73 0-8.172 0.054-10.937 0.075 0.269-0.229 0.591-0.502 0.943-0.797 1.352-0.136 3.987-0.351 8.226-0.431C59.427 47.638 61.371 47.294 62.082 47.105L62.082 47.105zM57.8 42.745c2.766 0.136 5.69 0.483 6.809 0.626-0.105 0.248-0.263 0.589-0.479 0.986-0.296 0.543-0.697 1.186-1.221 1.834-0.938-0.058-4.232-0.248-7.789-0.347-3.742-0.105-5.959 0.486-7.084 0.885 0.451-0.375 0.885-0.732 1.255-1.031 1.677-1.35 3.565-2.674 3.979-2.963C53.669 42.708 55.282 42.619 57.8 42.745L57.8 42.745zM39.731 48.786c1.624 0.027 3.089 0.012 3.567 0.006 0.28-0.234 1-0.828 1.932-1.577C42.851 47.241 40.793 47.87 39.731 48.786L39.731 48.786zM37.125 48.703c0.247 0.014 0.504 0.025 0.763 0.035 2.796-1.362 7.583-3.674 9.852-4.572 0.843-0.333 2.186-0.969 3.717-1.73-0.155-0.026-0.341-0.049-0.556-0.07-0.843 0.337-1.646 0.657-2.342 0.933l-3.666 1.58C42.279 46.102 39.02 47.744 37.125 48.703L37.125 48.703zM51.775 42.402c-0.642 0.452-2.259 1.603-4.052 2.975-2.024 1.546-3.937 3.131-4.391 3.508-0.777 0.012-4.829 0.061-7.327-0.136-0.445-0.035-0.759-0.081-0.972-0.129l14.849-6.399c0.902 0.014 1.5 0.093 1.872 0.176L51.775 42.402 51.775 42.402z" fill="white"></path></g></svg></g></svg></g><g></g></svg></g></svg></g><g></g></svg></g><defs><mask></mask></defs></svg></g></mask><linearGradient x1="0" x2="1" y1="0.5" y2="0.5" id="9485e9de-5b5d-4890-9d54-8c489e23022e"><stop stop-color="#ffa62e" offset="0"></stop><stop stop-color="#f71b3d" offset="1"></stop></linearGradient><rect width="395.5199890136719" height="247.1999969482422" fill="url(#9485e9de-5b5d-4890-9d54-8c489e23022e)" mask="url(#80ff5563-9493-447c-abf3-de3ce2ec22fd)" data-fill-palette-color="accent"></rect></svg><rect width="395.52" height="247.2" fill="none" stroke="none" visibility="hidden"></rect></g></svg></g></svg>